<svg width="424" height="57" viewBox="0 0 424 57" fill="none" xmlns="http://www.w3.org/2000/svg">
<g clip-path="url(#clip0_9563_54511)">
<path d="M3.88 30.4804H17.27V51.6904C17.27 53.8304 15.53 55.5704 13.39 55.5704H3.88C1.74 55.5704 0 53.8304 0 51.6904V34.3704C0 32.2304 1.74 30.4904 3.88 30.4904V30.4804ZM70.82 11.7904H61.31C59.17 11.7904 57.43 13.5304 57.43 15.6704V36.8804H70.82C72.96 36.8804 74.7 35.1404 74.7 33.0004V15.6704C74.7 13.5304 72.96 11.7904 70.82 11.7904ZM46.23 29.0404L46.16 28.9004C43.9 24.7304 37.36 12.6904 21.68 10.7504C19.35 10.4604 17.28 12.2604 17.28 14.6004V30.4804C22.48 30.4804 25.35 32.5104 28.55 38.3704C32.65 46.2004 39.12 55.1104 53.09 56.6404C55.4 56.8904 57.44 55.1104 57.44 52.7804V36.8704C51.64 36.8704 49.54 35.3504 46.24 29.0304L46.23 29.0404Z" fill="url(#paint0_linear_9563_54511)"/>
<path d="M217.379 11.8V0H209.459V11.8H198.609V18.43H209.459V44.1C209.459 52.71 215.059 56.68 222.809 56.68C225.819 56.68 229.119 55.9 231.829 54.9C230.719 53.13 229.899 51.15 229.399 49C227.759 49.52 226.009 49.88 224.359 49.88C219.539 49.88 217.379 47.9 217.379 43.42V18.44H232.429C233.159 16.53 234.359 14.16 236.319 11.81H217.379V11.8Z" fill="white"/>
<path d="M121.82 10.6797C112.86 10.6797 108.21 14.1297 105.54 18.2597V11.7997H98.2197V55.5597H106.06V33.9397C106.06 23.3497 110.8 17.4897 120.27 17.4897C128.45 17.4897 133.02 22.1397 133.02 31.6997V55.5597H140.94V30.6697C140.94 18.0897 134.91 10.6897 121.82 10.6897V10.6797Z" fill="white"/>
<path d="M172.46 10.5901C158.33 10.5901 148 20.3201 148 33.6701C148 47.0201 158.25 56.5801 172.29 56.5801C186.33 56.5801 196.58 46.9301 196.58 33.7501C196.58 20.5701 186.33 10.5801 172.46 10.5801V10.5901ZM172.55 49.7001C162.82 49.7001 156.1 43.1501 156.1 33.5101C156.1 23.8701 162.73 17.4901 172.38 17.4901C182.03 17.4901 188.57 24.1201 188.57 33.6801C188.57 43.2401 182.02 49.7001 172.55 49.7001Z" fill="white"/>
<path d="M353.239 0H345.399V55.56H353.239V0Z" fill="white"/>
<path d="M384.639 10.6797C370.509 10.6797 360.689 20.0697 360.689 33.5897C360.689 47.1097 370.679 56.5897 385.409 56.5897C395.569 56.5897 402.979 52.0197 405.309 44.4397L398.249 42.4597C396.609 47.1097 391.959 49.8697 385.499 49.8697C376.279 49.8697 369.389 44.2697 368.789 35.9197H407.459V33.4197C407.459 19.7197 398.419 10.6797 384.629 10.6797H384.639ZM368.789 29.7997C369.649 22.2197 375.589 17.3097 384.379 17.3097C393.169 17.3097 398.419 21.8697 399.019 29.7997H368.789Z" fill="white"/>
<path d="M315.709 10.68C308.129 10.68 302.099 14.21 298.829 18.52V0H290.989V55.56H298.309V47.81C301.239 52.89 307.959 56.6 315.619 56.6C327.589 56.6 337.759 47.99 337.759 33.6C337.759 19.21 327.599 10.69 315.709 10.69V10.68ZM314.509 49.79C305.809 49.79 298.749 43.93 298.749 33.51C298.749 23.09 306.069 17.49 314.509 17.49C323.469 17.49 329.759 23.61 329.759 33.6C329.759 43.59 323.559 49.79 314.509 49.79Z" fill="white"/>
<path d="M261.29 10.6797C251.43 10.6797 245.2 13.8897 242.06 18.4697C241.67 19.0497 241.33 19.6497 241.03 20.2597L249.19 21.9997C249.53 21.4997 249.9 21.0197 250.36 20.5897C252.55 18.5297 256.11 17.3097 260.94 17.3097C268.78 17.3097 273.6 20.4097 273.6 25.8397V27.8197C268.69 27.9897 261.97 28.5997 257.23 29.2797C250.77 30.2297 245.34 31.1797 241.81 33.8497C238.88 35.9997 237.42 39.4497 237.42 43.6697C237.42 52.1097 244.05 56.5897 254.13 56.5897C263.35 56.5897 270.84 52.7997 273.77 47.5497L274.15 46.9097L274.11 47.8097V55.5597H281.43V27.2197C281.43 15.1597 273.08 10.6797 261.27 10.6797H261.29ZM273.6 38.1597C273.6 43.4997 265.85 50.2197 255.43 50.2197C248.88 50.2197 245.7 47.6397 245.7 43.2397C245.7 37.9897 250.27 35.9197 259.48 34.7097C265.08 34.0197 270.16 33.4197 273.61 33.3297V38.1497L273.6 38.1597Z" fill="white"/>
<path d="M416.77 56.6796C413.29 56.6796 410.46 53.8496 410.46 50.3696C410.46 46.8896 413.29 44.0596 416.77 44.0596C420.25 44.0596 423.08 46.8896 423.08 50.3696C423.08 53.8496 420.25 56.6796 416.77 56.6796ZM416.77 44.9396C413.78 44.9396 411.35 47.3696 411.35 50.3596C411.35 53.3496 413.78 55.7796 416.77 55.7796C419.76 55.7796 422.19 53.3496 422.19 50.3596C422.19 47.3696 419.76 44.9396 416.77 44.9396Z" fill="white"/>
<path d="M414.23 46.9993H417.18C418.73 46.9993 419.61 47.6593 419.61 48.8293C419.61 49.9093 418.85 50.6193 417.56 50.7593L419.82 53.3793H418.72L416.52 50.7893H415.1V53.3793H414.22V46.9893L414.23 46.9993ZM417.03 50.0693C418.13 50.0693 418.74 49.6493 418.74 48.8793C418.74 48.1593 418.2 47.7593 417.21 47.7593H415.1V50.0693H417.03Z" fill="white"/>
</g>
<defs>
<linearGradient id="paint0_linear_9563_54511" x1="0" y1="33.6904" x2="74.7" y2="33.6904" gradientUnits="userSpaceOnUse">
<stop stop-color="#4AE7FF"/>
<stop offset="1" stop-color="#001AFF"/>
</linearGradient>
<clipPath id="clip0_9563_54511">
<rect width="423.08" height="56.68" fill="white"/>
</clipPath>
</defs>
</svg>
