<svg width="92" height="16" viewBox="0 0 92 16" fill="none" xmlns="http://www.w3.org/2000/svg">
<path d="M33.5158 3.33098V0H31.2881V3.33098H28.2363V5.20254H31.2881V12.4488C31.2881 14.8793 32.8632 16 35.0431 16C35.8897 16 36.8179 15.7798 37.5801 15.4975C37.2679 14.9979 37.0373 14.439 36.8966 13.832C36.4353 13.9788 35.9431 14.0805 35.479 14.0805C34.1233 14.0805 33.5158 13.5215 33.5158 12.2569V5.20536H37.7489C37.9542 4.6662 38.2917 3.99718 38.843 3.3338H33.5158V3.33098Z" fill="white"/>
<path d="M6.638 3.01465C4.1178 3.01465 2.8099 3.98854 2.0589 5.15438V3.33081H0V15.6837H2.2051V9.58063C2.2051 6.59122 3.5384 4.93702 6.202 4.93702C8.5028 4.93702 9.7882 6.24965 9.7882 8.94831V15.6837H12.0159V8.65756C12.0159 5.10639 10.3198 3.01747 6.638 3.01747V3.01465Z" fill="white"/>
<path d="M20.8819 2.98915C16.9076 2.98915 14.002 5.7358 14.002 9.50432C14.002 13.2728 16.8851 15.9715 20.8341 15.9715C24.7831 15.9715 27.6662 13.2474 27.6662 9.52691C27.6662 5.80637 24.7831 2.98633 20.8819 2.98633V2.98915ZM20.9072 14.0294C18.1705 14.0294 16.2803 12.1804 16.2803 9.45916C16.2803 6.73792 18.1451 4.93693 20.8594 4.93693C23.5737 4.93693 25.4132 6.80849 25.4132 9.50715C25.4132 12.2058 23.5709 14.0294 20.9072 14.0294Z" fill="white"/>
<path d="M71.7296 0H69.5244V15.6838H71.7296V0Z" fill="white"/>
<path d="M80.5622 3.01465C76.5872 3.01465 73.8252 5.66532 73.8252 9.48183C73.8252 13.2983 76.6352 15.9744 80.7782 15.9744C83.6362 15.9744 85.7202 14.6844 86.3752 12.5446L84.3902 11.9857C83.9282 13.2983 82.6212 14.0775 80.8032 14.0775C78.2102 14.0775 76.2722 12.4967 76.1032 10.1396H86.9802V9.43384C86.9802 5.56652 84.4382 3.01465 80.5592 3.01465H80.5622ZM76.1032 8.41197C76.3452 6.27223 78.0162 4.88621 80.4882 4.88621C82.9612 4.88621 84.4382 6.17343 84.6062 8.41197H76.1032Z" fill="white"/>
<path d="M61.1737 3.01482C59.0417 3.01482 57.3456 4.01129 56.4258 5.22795V0H54.2207V15.6838H56.2796V13.4961C57.1037 14.9301 58.9938 15.9774 61.1484 15.9774C64.5152 15.9774 67.3757 13.5469 67.3757 9.48483C67.3757 5.42272 64.518 3.01764 61.1737 3.01764V3.01482ZM60.8362 14.055C58.3891 14.055 56.4033 12.4008 56.4033 9.45942C56.4033 6.518 58.4622 4.93719 60.8362 4.93719C63.3564 4.93719 65.1255 6.66478 65.1255 9.48483C65.1255 12.3049 63.3817 14.055 60.8362 14.055Z" fill="white"/>
<path d="M45.8672 3.01465C43.0939 3.01465 41.3416 3.92079 40.4584 5.21366C40.3487 5.37739 40.2531 5.54676 40.1687 5.71895L42.4639 6.21013C42.5595 6.06899 42.6636 5.93349 42.7929 5.81211C43.4089 5.2306 44.4102 4.88621 45.7688 4.88621C47.9739 4.88621 49.3297 5.7613 49.3297 7.29411V7.85304C47.9486 7.90103 46.0585 8.07322 44.7253 8.26518C42.9083 8.53335 41.381 8.80152 40.3881 9.55523C39.564 10.1621 39.1533 11.136 39.1533 12.3273C39.1533 14.7098 41.0181 15.9744 43.8533 15.9744C46.4466 15.9744 48.5534 14.9046 49.3775 13.4226L49.4844 13.2419L49.4731 13.4959V15.6837H51.532V7.68367C51.532 4.27929 49.1834 3.01465 45.8616 3.01465H45.8672ZM49.3297 10.7719C49.3297 12.2793 47.1498 14.1763 44.219 14.1763C42.3767 14.1763 41.4822 13.448 41.4822 12.2059C41.4822 10.7239 42.7676 10.1396 45.3581 9.79799C46.9332 9.60322 48.3621 9.43384 49.3325 9.40844V10.7691L49.3297 10.7719Z" fill="white"/>
<path d="M89.5992 16C88.6202 16 87.8242 15.2011 87.8242 14.2187C87.8242 13.2364 88.6202 12.4375 89.5992 12.4375C90.5782 12.4375 91.3742 13.2364 91.3742 14.2187C91.3742 15.2011 90.5782 16 89.5992 16ZM89.5992 12.6859C88.7582 12.6859 88.0752 13.3719 88.0752 14.2159C88.0752 15.0599 88.7582 15.7459 89.5992 15.7459C90.4402 15.7459 91.1242 15.0599 91.1242 14.2159C91.1242 13.3719 90.4402 12.6859 89.5992 12.6859Z" fill="white"/>
<path d="M88.8848 13.2675H89.7138C90.1498 13.2675 90.3978 13.4538 90.3978 13.7841C90.3978 14.0889 90.1838 14.2893 89.8208 14.3289L90.4568 15.0685H90.1478L89.5288 14.3373H89.1288V15.0685H88.8818V13.2646L88.8848 13.2675ZM89.6718 14.1341C89.9818 14.1341 90.1528 14.0155 90.1528 13.7982C90.1528 13.5949 90.0008 13.482 89.7228 13.482H89.1288V14.1341H89.6718Z" fill="white"/>
</svg>
