<svg width="22" height="16" viewBox="0 0 22 16" fill="none" xmlns="http://www.w3.org/2000/svg">
<path d="M1.09133 8.60455H4.85754V14.5918C4.85754 15.1959 4.36813 15.6871 3.76621 15.6871H1.09133C0.489411 15.6871 0 15.1959 0 14.5918V9.70265C0 9.09855 0.489411 8.60737 1.09133 8.60737V8.60455ZM19.9196 3.32862H17.2447C16.6428 3.32862 16.1534 3.8198 16.1534 4.42389V10.4112H19.9196C20.5215 10.4112 21.0109 9.92001 21.0109 9.31591V4.42389C21.0109 3.8198 20.5215 3.32862 19.9196 3.32862ZM13.0031 8.19806L12.9835 8.15854C12.3478 6.9814 10.5083 3.58267 6.09795 3.03504C5.44259 2.95318 4.86036 3.46129 4.86036 4.12184V8.60455C6.32297 8.60455 7.13021 9.17759 8.03028 10.8318C9.18349 13.0421 11.0033 15.5573 14.9327 15.9892C15.5824 16.0597 16.1562 15.5573 16.1562 14.8995V10.4084C14.5248 10.4084 13.9342 9.97929 13.006 8.19524L13.0031 8.19806Z" fill="url(#paint0_linear_3770_6459)"/>
<defs>
<linearGradient id="paint0_linear_3770_6459" x1="0" y1="9.51069" x2="21.0109" y2="9.51069" gradientUnits="userSpaceOnUse">
<stop stop-color="#4AE7FF"/>
<stop offset="1" stop-color="#001AFF"/>
</linearGradient>
</defs>
</svg>
